<svg xmlns="http://www.w3.org/2000/svg" version="1.1" xmlns:xlink="http://www.w3.org/1999/xlink" xmlns:svgjs="http://svgjs.dev/svgjs" width="1500" height="579" viewBox="0 0 1500 579"><g transform="matrix(1,0,0,1,-0.9090909090909918,0.43929800797201324)"><svg viewBox="0 0 396 153" data-background-color="#8d021f" preserveAspectRatio="xMidYMid meet" height="579" width="1500" xmlns="http://www.w3.org/2000/svg" xmlns:xlink="http://www.w3.org/1999/xlink"><g id="tight-bounds" transform="matrix(1,0,0,1,0.2400000000000091,-0.11608392956773628)"><svg viewBox="0 0 395.52 153.23216785913547" height="153.23216785913547" width="395.52"><g><svg viewBox="0 0 395.52 153.23216785913547" height="153.23216785913547" width="395.52"><g transform="matrix(1,0,0,1,0,94.70362710663804)"><svg viewBox="0 0 395.52 58.52854075249743" height="58.52854075249743" width="395.52"><g id="textblocktransform"><svg viewBox="0 0 395.52 58.52854075249743" height="58.52854075249743" width="395.52" id="textblock"><g><svg viewBox="0 0 395.52 58.52854075249743" height="58.52854075249743" width="395.52"><g transform="matrix(1,0,0,1,0,0)"><svg width="395.52" viewBox="2.15 -38.23 261.48 38.69" height="58.52854075249743" data-palette-color="#ff5858"><path d="M32.32-5.79L32.32-5.79Q33.33-5.79 33.33-4.66L33.33-4.66Q33.33-3.74 31.91-2.81L31.91-2.81Q29.27-1.07 27.47-0.54L27.47-0.54Q24.07 0.46 20.34 0.46 16.6 0.46 13.15-0.87 9.69-2.2 7.25-4.59L7.25-4.59Q2.15-9.62 2.15-17.58L2.15-17.58Q2.15-21.41 3.59-24.62 5.03-27.83 7.57-30.13L7.57-30.13Q12.94-34.99 21.07-34.99L21.07-34.99Q25.63-34.99 29.1-33.42L29.1-33.42Q32.79-31.79 32.79-30.64L32.79-30.64Q32.79-30.18 32.48-29.83 32.18-29.49 31.79-29.49L31.79-29.49Q31.01-29.49 30.37-30.19 29.74-30.88 28.65-31.45 27.56-32.01 26.27-32.42L26.27-32.42Q23.63-33.23 21.47-33.23 19.31-33.23 17.9-32.93L17.9-32.93 17.9-1.64Q19.6-1.34 20.92-1.34 22.24-1.34 23.61-1.51 24.98-1.68 26.29-2.08L26.29-2.08Q29.25-2.95 30.74-4.66L30.74-4.66Q31.27-5.3 31.59-5.54 31.91-5.79 32.32-5.79ZM44.41-30.35Q41.89-30.35 40.48-31.47 39.06-32.59 39.06-34.42L39.06-34.42Q39.06-35.96 40.62-37.06L40.62-37.06Q42.28-38.23 44.14-38.23 45.99-38.23 47.01-37.87 48.02-37.5 48.73-36.91L48.73-36.91Q50.14-35.72 50.14-34.13L50.14-34.13Q50.14-32.54 48.53-31.45L48.53-31.45Q46.92-30.35 44.41-30.35ZM39.28 0L39.28-26.07 49.78-26.07 49.78 0 39.28 0ZM75.83 0L75.83-23.41Q75.21-23.8 74.51-23.8 73.8-23.8 73.04-23.47 72.29-23.14 71.45-22.56L71.45-22.56Q69.72-21.31 68.26-19.24L68.26-19.24 68.26 0 57.76 0 57.76-26.07 68.26-26.07 68.26-21.9Q72.43-26.51 77.7-26.51L77.7-26.51Q86.32-26.51 86.32-18.16L86.32-18.16 86.32 0 75.83 0ZM116.96-5.93L116.96-5.93Q117.91-5.93 117.91-5.05L117.91-5.05Q117.91-4.39 117.06-3.49L117.06-3.49Q113.2 0.46 106.49 0.46L106.49 0.46Q100.46 0.46 96.33-3.17L96.33-3.17Q92.06-6.96 92.06-12.74L92.06-12.74Q92.06-18.65 95.92-22.46L95.92-22.46Q99.99-26.51 106.76-26.51L106.76-26.51Q112.18-26.51 115.86-23.22L115.86-23.22Q119.84-19.68 119.84-13.92L119.84-13.92Q119.84-13.09 119.79-12.16L119.79-12.16 103.68-12.16 103.68-1.68Q105.34-1.34 107.41-1.34L107.41-1.34Q111.81-1.34 114.91-4.25L114.91-4.25Q115.54-4.88 115.81-5.25L115.81-5.25Q116.37-5.93 116.96-5.93ZM110.44-13.94L110.44-24.27Q108.85-24.73 106.85-24.73 104.85-24.73 103.68-24.46L103.68-24.46 103.68-13.94 110.44-13.94ZM154.31-19.34L154.31-19.34Q154.36-18.75 154.36-18.16L154.36-18.16 154.36 0 143.89 0 143.89-23.68Q143.62-23.8 143.25-23.8L143.25-23.8 142.47-23.8Q140.57-23.8 138.03-21.19L138.03-21.19Q137.25-20.39 136.54-19.41L136.54-19.41 136.54 0 126.04 0 126.04-26.07 136.54-26.07 136.54-22.14Q140.66-26.51 145.77-26.51L145.77-26.51Q152.36-26.51 153.9-21.63L153.9-21.63Q156-24.05 158.52-25.28 161.05-26.51 163.61-26.51L163.61-26.51Q167.98-26.51 170.08-24.44 172.18-22.36 172.18-18.16L172.18-18.16 172.18 0 161.71 0 161.71-23.71Q161.49-23.8 160.61-23.8 159.73-23.8 158.99-23.47 158.24-23.14 157.46-22.56L157.46-22.56Q155.75-21.31 154.31-19.34ZM196.5 0L196.5-1.61Q193.37 0.46 189.56 0.46L189.56 0.46Q184.51 0.46 181.46-2.08L181.46-2.08Q178.28-4.69 178.28-9.33L178.28-9.33Q178.28-13.43 181.43-16.06L181.43-16.06Q184.66-18.73 189.9-18.73L189.9-18.73Q193.42-18.73 196.5-17.38L196.5-17.38 196.5-24.1Q194.27-24.73 192.58-24.73 190.88-24.73 189.71-24.58 188.54-24.44 187.49-24.15L187.49-24.15Q185.22-23.51 184.05-22.44L184.05-22.44Q183.36-21.8 182.8-21.8 182.24-21.8 181.95-22.08 181.65-22.36 181.65-22.71 181.65-23.05 181.77-23.33 181.9-23.61 182.24-23.9L182.24-23.9Q182.97-24.54 184.68-25.17L184.68-25.17Q188.22-26.51 191.78-26.51L191.78-26.51Q202.62-26.51 205.63-21.34L205.63-21.34Q206.95-19.04 206.95-15.31L206.95-15.31 206.95 0 196.5 0ZM196.5-3.71L196.5-15.48Q193.42-16.97 190.37-16.97L190.37-16.97Q189.88-16.97 189.44-16.89L189.44-16.89 189.44-1.37Q189.56-1.34 189.71-1.34 189.86-1.34 190-1.34L190-1.34Q193.35-1.34 196.5-3.71L196.5-3.71ZM224.62 0.46L224.62 0.46Q215.05 0.46 215.05-8.28L215.05-8.28 215.02-24.29 212.22-24.17Q210.9-24.17 210.9-25.17 210.9-26.17 212.31-26.17L212.31-26.17 214.66-26.07 215.02-26.07 215.02-29.86 225.5-34.55 225.5-26.07 228.77-26.07 231.09-26.17Q232.53-26.17 232.53-25.15L232.53-25.15Q232.53-24.68 232.13-24.43 231.72-24.17 231.21-24.17L231.21-24.17 228.18-24.29 225.5-24.29 225.5-1.34Q228.35-1.39 230.26-2.98L230.26-2.98Q231.16-3.66 231.54-4.74 231.92-5.81 232.22-6.12 232.53-6.42 232.94-6.42L232.94-6.42Q233.36-6.42 233.65-6.09 233.94-5.76 233.94-5.31 233.94-4.86 233.7-4.31 233.46-3.76 232.97-3.15L232.97-3.15Q231.87-1.78 230.43-0.98L230.43-0.98Q227.82 0.46 224.62 0.46ZM260.75-5.93L260.75-5.93Q261.7-5.93 261.7-5.05L261.7-5.05Q261.7-4.39 260.85-3.49L260.85-3.49Q256.99 0.46 250.28 0.46L250.28 0.46Q244.25 0.46 240.12-3.17L240.12-3.17Q235.85-6.96 235.85-12.74L235.85-12.74Q235.85-18.65 239.7-22.46L239.7-22.46Q243.78-26.51 250.54-26.51L250.54-26.51Q255.96-26.51 259.65-23.22L259.65-23.22Q263.63-19.68 263.63-13.92L263.63-13.92Q263.63-13.09 263.58-12.16L263.58-12.16 247.47-12.16 247.47-1.68Q249.13-1.34 251.2-1.34L251.2-1.34Q255.6-1.34 258.7-4.25L258.7-4.25Q259.33-4.88 259.6-5.25L259.6-5.25Q260.16-5.93 260.75-5.93ZM254.23-13.94L254.23-24.27Q252.64-24.73 250.64-24.73 248.64-24.73 247.47-24.46L247.47-24.46 247.47-13.94 254.23-13.94Z" opacity="1" transform="matrix(1,0,0,1,0,0)" fill="#ff5858" class="wordmark-text-0" data-fill-palette-color="primary" id="text-0"></path></svg></g></svg></g></svg></g></svg></g><g transform="matrix(1,0,0,1,149.31741025548902,0)"><svg viewBox="0 0 96.88517948902195 80.88644331995145" height="80.88644331995145" width="96.88517948902195"><g><svg xmlns="http://www.w3.org/2000/svg" xmlns:xlink="http://www.w3.org/1999/xlink" version="1.1" x="8" y="0" viewBox="0 0 64 64.00099999999999" enable-background="new 0 0 64 64" xml:space="preserve" width="80.88517948902195" height="80.88644331995145" class="icon-icon-0" data-fill-palette-color="accent" id="icon-0"><g fill="#ed2647" data-fill-palette-color="accent"><g fill="#ed2647" data-fill-palette-color="accent"><rect x="14.929" y="11.146" width="34.144" height="22.292" fill="#ed2647" data-fill-palette-color="accent"></rect><path d="M48.072 12.146v20.292H15.929V12.146H48.072M50.072 10.146H13.929v24.292h36.144V10.146L50.072 10.146z" fill="#ed2647" data-fill-palette-color="accent"></path></g><g fill="#ed2647" data-fill-palette-color="accent"><polygon points="1,2.138 11.148,10.613 11.148,33.97 1,42.445   " fill="#ed2647" data-fill-palette-color="accent"></polygon><path d="M2 4.276l8.148 6.805v22.421L2 40.307V4.276M0 0v44.583l12.148-10.146V10.146L0 0 0 0z" fill="#ed2647" data-fill-palette-color="accent"></path></g><g fill="#ed2647" data-fill-palette-color="accent"><polygon points="52.853,33.97 52.853,10.613 63,2.138 63,42.445   " fill="#ed2647" data-fill-palette-color="accent"></polygon><path d="M62 4.276v36.03l-8.147-6.805V11.081L62 4.276M64 0L51.853 10.146v24.292L64 44.583V0L64 0z" fill="#ed2647" data-fill-palette-color="accent"></path></g><g fill="#ed2647" data-fill-palette-color="accent"><g fill="#ed2647" data-fill-palette-color="accent"><path d="M53.147 51.959c-2.584 0-4.686-2.102-4.686-4.686s2.102-4.686 4.686-4.686c2.583 0 4.685 2.102 4.685 4.686S55.73 51.959 53.147 51.959z" fill="#ed2647" data-fill-palette-color="accent"></path><path d="M53.147 43.588c2.031 0 3.685 1.653 3.685 3.686s-1.653 3.686-3.685 3.686c-2.032 0-3.686-1.653-3.686-3.686S51.115 43.588 53.147 43.588M53.147 41.588c-3.141 0-5.686 2.545-5.686 5.686s2.545 5.686 5.686 5.686c3.14 0 5.685-2.545 5.685-5.686S56.287 41.588 53.147 41.588L53.147 41.588z" fill="#ed2647" data-fill-palette-color="accent"></path></g><g fill="#ed2647" data-fill-palette-color="accent"><g fill="#ed2647" data-fill-palette-color="accent"><path d="M44.978 63c-0.008-0.132-0.012-0.26-0.012-0.384 0-4.511 3.67-8.181 8.182-8.181 4.511 0 8.181 3.67 8.181 8.181 0 0.124-0.004 0.251-0.012 0.384H44.978z" fill="#ed2647" data-fill-palette-color="accent"></path><path d="M53.147 55.436c3.752 0 6.841 2.893 7.154 6.564h-14.31C46.306 58.328 49.396 55.436 53.147 55.436M53.147 53.436c-5.071 0-9.182 4.109-9.182 9.181 0 0.473 0.048 0.931 0.116 1.384h18.131c0.067-0.453 0.115-0.911 0.115-1.384C62.328 57.545 58.219 53.436 53.147 53.436L53.147 53.436z" fill="#ed2647" data-fill-palette-color="accent"></path></g></g></g><g fill="#ed2647" data-fill-palette-color="accent"><g fill="#ed2647" data-fill-palette-color="accent"><path d="M32 51.959c-2.583 0-4.686-2.102-4.686-4.686s2.102-4.686 4.686-4.686c2.584 0 4.686 2.102 4.686 4.686S34.584 51.959 32 51.959z" fill="#ed2647" data-fill-palette-color="accent"></path><path d="M32 43.588c2.032 0 3.686 1.653 3.686 3.686S34.032 50.959 32 50.959s-3.686-1.653-3.686-3.686S29.968 43.588 32 43.588M32 41.588c-3.141 0-5.686 2.545-5.686 5.686s2.545 5.686 5.686 5.686 5.686-2.545 5.686-5.686S35.141 41.588 32 41.588L32 41.588z" fill="#ed2647" data-fill-palette-color="accent"></path></g><g fill="#ed2647" data-fill-palette-color="accent"><path d="M23.83 63c-0.008-0.132-0.012-0.259-0.012-0.384 0-4.511 3.67-8.181 8.182-8.181 4.512 0 8.182 3.67 8.182 8.181 0 0.125-0.004 0.252-0.012 0.384H23.83z" fill="#ed2647" data-fill-palette-color="accent"></path><path d="M32 55.436c3.752 0 6.842 2.893 7.155 6.564H24.845C25.158 58.328 28.248 55.436 32 55.436M32 53.436c-5.071 0-9.182 4.109-9.182 9.181 0 0.473 0.049 0.931 0.116 1.384h18.131c0.067-0.453 0.116-0.911 0.116-1.384C41.182 57.545 37.071 53.436 32 53.436L32 53.436z" fill="#ed2647" data-fill-palette-color="accent"></path></g></g><g fill="#ed2647" data-fill-palette-color="accent"><g fill="#ed2647" data-fill-palette-color="accent"><path d="M10.854 51.959c-2.584 0-4.687-2.102-4.687-4.686s2.103-4.686 4.687-4.686c2.583 0 4.686 2.102 4.686 4.686S13.438 51.959 10.854 51.959z" fill="#ed2647" data-fill-palette-color="accent"></path><path d="M10.854 43.588c2.032 0 3.686 1.653 3.686 3.686s-1.653 3.686-3.686 3.686c-2.033 0-3.687-1.653-3.687-3.686S8.822 43.588 10.854 43.588M10.854 41.588c-3.142 0-5.687 2.545-5.687 5.686s2.545 5.686 5.687 5.686c3.141 0 5.686-2.545 5.686-5.686S13.995 41.588 10.854 41.588L10.854 41.588z" fill="#ed2647" data-fill-palette-color="accent"></path></g><g fill="#ed2647" data-fill-palette-color="accent"><path d="M2.685 63c-0.008-0.132-0.011-0.259-0.011-0.384 0-4.511 3.669-8.181 8.179-8.181 4.511 0 8.182 3.67 8.182 8.181 0 0.125-0.003 0.253-0.011 0.384H2.685z" fill="#ed2647" data-fill-palette-color="accent"></path><path d="M10.853 55.436c3.752 0 6.842 2.893 7.155 6.564H3.7C4.014 58.328 7.102 55.436 10.853 55.436M10.853 53.436c-5.069 0-9.179 4.109-9.179 9.181 0 0.473 0.046 0.931 0.113 1.384H19.92c0.068-0.453 0.114-0.911 0.114-1.384C20.034 57.545 15.924 53.436 10.853 53.436L10.853 53.436z" fill="#ed2647" data-fill-palette-color="accent"></path></g></g></g></svg></g></svg></g><g><rect width="149.31741025548902" height="5.278164206514274" y="74.60827911343718" x="246.202589744511" fill="#ed2647" data-fill-palette-color="accent"></rect><rect width="149.31741025548902" height="5.278164206514274" y="74.60827911343718" x="0" fill="#ed2647" data-fill-palette-color="accent"></rect><rect width="149.31741025548902" height="5.278164206514274" y="64.05195070040863" x="246.202589744511" fill="#ed2647" data-fill-palette-color="accent"></rect><rect width="149.31741025548902" height="5.278164206514274" y="64.05195070040863" x="0" fill="#ed2647" data-fill-palette-color="accent"></rect></g></svg></g><defs></defs></svg><rect width="395.52" height="153.23216785913547" fill="none" stroke="none" visibility="hidden"></rect></g></svg></g></svg>